<?xml version="1.0" encoding="utf-8"?>
<!-- Generator: Adobe Illustrator 25.1.0, SVG Export Plug-In . SVG Version: 6.00 Build 0)  -->
<svg version="1.1" id="Agrupar_1_xA0_Imagem_1_" xmlns="http://www.w3.org/2000/svg" xmlns:xlink="http://www.w3.org/1999/xlink"
	 x="0px" y="0px" viewBox="0 0 1376 1000" style="enable-background:new 0 0 1376 1000;" xml:space="preserve">
<style type="text/css">
	.st0{fill:#FEFEFE;}
	.st1{fill:#A8A8A8;}
	.st2{fill:#D868AC;}
	.st3{fill:#81817D;}
	.st4{fill:#D869AD;}
	.st5{fill:#92918F;}
	.st6{fill:#807E7B;}
	.st7{fill:#93908E;}
	.st8{fill:#A3A2A0;}
	.st9{fill:#82827F;}
	.st10{fill:#787774;}
	.st11{fill:#DA6DAF;}
	.st12{fill:#D868AD;}
	.st13{fill:#D96CAF;}
	.st14{fill:#C4C4BC;}
	.st15{fill:#D7D6D7;}
	.st16{fill:#646363;}
	.st17{fill:#757672;}
	.st18{fill:#595759;}
	.st19{fill:#D9D9D9;}
	.st20{fill:#5A595A;}
	.st21{fill:#E3E3E3;}
	.st22{fill:#E2E2E2;}
	.st23{fill:#C2C1C1;}
	.st24{fill:#7D7C7C;}
	.st25{fill:#858585;}
	.st26{fill:#CAC9C9;}
	.st27{fill:#535250;}
</style>
<g>
	<g>
		<path class="st0" d="M378.07,276.1c235.11,0,470.22,0.01,705.33-0.09c3.75,0,4.6,0.84,4.59,4.59
			c-0.11,119.94-0.11,239.87,0,359.81c0,3.75-0.84,4.59-4.59,4.59c-266.27-0.1-532.54-0.1-798.81,0c-3.75,0-4.6-0.84-4.59-4.59
			c0.11-119.94,0.11-239.87,0-359.81c0-3.75,0.84-4.63,4.59-4.6c25.83,0.19,51.65,0.1,77.48,0.1c0.11,2.88-2.09,3.01-4.04,3.24
			c-18.08,2.16-33.91,9.29-47.36,21.55c-2.93,2.67-6.35,2.45-9.84,2.57c-6.71,0.24-12,4.64-12.99,10.93
			c-0.82,5.21,0.81,9.65,5.29,12.58c5.44,3.56,11.36,4.05,17.01,0.79c5.02-2.9,8.42-7.17,7.25-13.56c-0.58-3.18,0.69-5.3,3.01-7.37
			c9.84-8.81,21.46-13.89,34.22-16.5c20.14-4.11,39.19-0.76,56.65,9.9c16.24,9.92,27.14,24.38,30.47,43.17
			c3.2,18-0.97,34.98-13.04,49.06c-19.92,23.23-45.59,30.36-75.19,25.26c-2.46-0.42-4.82-1.28-7.19-2.08
			c-3.8-1.29-5.58-3.86-5.57-7.89c0.01-5.82,0.14-11.65-0.14-17.48c-0.03-9.87-0.01-19.73-0.05-29.59
			c-0.01-1.68,0.78-3.69-1.21-4.93c-1.49-0.43-3.02-0.33-4.54-0.4c-0.49,0.01-0.98,0-1.47-0.02c-0.71,0-1.42-0.01-2.13,0.01
			c-0.98,0.04-1.79,0.38-2.32,1.26c-0.98,10.31-0.18,20.62-0.42,30.92c-0.1,4.33,0.21,8.67-0.13,12.98
			c-0.32,4.17-2.53,5.14-6.03,2.78c-2.62-1.77-4.38-4.05-3.94-7.5c0.87-6.85-2.17-11.54-8.2-14.5c-6.31-3.09-12.1-1.51-17.3,2.44
			c-5.82,4.42-6.2,11.75-1.25,17.1c3.23,3.49,7.34,5.35,11.99,5.29c3.62-0.04,6.37,1.24,9.06,3.41c3.62,2.93,7.35,5.72,11.45,8
			c3.07,1.71,4.04,4.22,3.86,7.89c-0.71,14.61-1.22,29.23,0.28,43.83c0.22,2.16,0.2,4.32,0.2,6.48c0.02,25.64-0.04,51.27,0.04,76.91
			c-0.02,16.55,0.04,33.08,0.04,49.62c0.33,6.36-0.42,12.75,0.34,19.1c0.86,5.89,2.64,11.53,4.93,17.02
			c0.37,0.89,0.66,2.25,1.67,2.26c1.38,0.02,1.34-1.61,1.89-2.56c1.32-3.75,2.47-7.53,2.45-11.57c0.97-6.41,1.24-12.88,1.74-19.32
			c1.74-22.42,0.09-44.83-0.12-67.24c-0.18-19.27-1.45-38.52-0.9-57.8c0.5-15.79,0.07-31.6,0.21-47.4c0.07-7.85,1.16-9.11,8.85-7.08
			c20.33,5.37,39.69,2.11,58.3-6.39c28.46-13,46.96-39.41,45.55-71.24c-0.87-19.51-9.8-35.89-24.43-49.15
			c-13.3-12.05-28.96-18.58-46.43-21.4C380.57,279.2,378.05,279.24,378.07,276.1z"/>
		<path class="st1" d="M342.11,391.05c0.07,5.99,0.25,11.98,0.18,17.96c-0.03,2.96,1.12,4.4,3.98,5.37
			c30.95,10.47,72.39-0.77,89.03-34.43c10.83-21.9,7.38-45.8-8.26-64.38c-24.52-29.12-68.45-32.93-98.93-13.05
			c-2.91,1.9-5.5,4.29-8.27,6.41c-1.75,1.35-1.53,2.88-1.11,4.87c1.34,6.3-1.57,11.82-7.68,15.35c-6.08,3.51-14.68,2.68-20.13-1.93
			c-4.59-3.88-6.21-10.04-3.74-15.87c2.49-5.86,7.11-9.32,13.55-9.18c4.64,0.1,7.97-1.44,11.51-4.44
			c13.27-11.24,28.71-17.85,46.06-19.74c1.56-0.17,3-0.27,3.77-1.87c5.33,0,10.66,0,16,0c0.72,2.08,2.59,1.75,4.18,1.98
			c14.73,2.13,28.46,6.93,40.43,15.9c20.34,15.23,32.63,35.14,32.14,61.06c-0.46,24.31-11.63,43.68-30.83,58.35
			c-16.31,12.46-35.3,17.51-55.43,18.54c-7.14,0.36-14.14-1.89-21.09-3.46c-4.14-0.93-5.24-0.19-5.21,4.06
			c0.12,16.15-0.08,32.3-0.15,48.45c-3.31-1.06-2.44-3.96-2.47-6.2c-0.15-12.99-0.04-25.98-0.09-38.96
			c-0.01-1.76,0.35-3.58-0.63-5.7c-0.74,3.19,0.33,6.54-2.38,9.27c-2.54-3.58-0.78-7.2-1.38-9.51c1.1,45.87-0.01,92.71,0.31,138.8
			c-0.07,0.06-0.31-1.8,1.3-1.59c1.29,0.17,1.8,1.36,2.2,2.46c0.59,1.59,0.67,3.27,0.54,4.93c-0.14,1.79,0.07,4.02-2.09,4.64
			c-2.27,0.66-1.93-2.25-3.15-2.98c-0.54,2.65-1.74,4-4.58,2.69c-1.34-1.94-0.95-4.16-1-6.3c-0.24-12.14,0.75-24.26,0.79-36.38
			c0.05-15.29-0.38-30.59-0.36-45.89c0.02-19.97,0.06-39.94-0.04-57.07c-0.01,27.42-0.2,57.67,0.12,87.91
			c0.11,10.13,0.45,20.23-0.56,30.33c-0.37,0.65-0.89,0.82-1.57,0.51c-0.08-11.31-0.15-22.62-0.23-33.93
			c-0.19-28.95-0.63-57.9-0.38-86.85c0.06-6.96-0.01-12.45-7.68-15.35c-3.28-1.24-6.03-4.08-8.81-6.43
			c-1.61-1.37-2.91-1.88-5.22-1.65c-11.61,1.17-21.34-10.39-17.07-19.93c3.09-6.9,12.66-11.13,20.2-8.92
			c9.2,2.69,13.15,8.65,11.84,17.84c-0.32,2.26,3.63,7.12,5.77,6.87c2.39-0.29,1.28-2.35,1.29-3.54c0.13-13.65,0.1-27.3,0.22-40.94
			c0.02-1.66-0.97-3.71,1.11-4.97c1.74,1.94,1.44,4.33,1.44,6.63c0.03,12.95-0.03,25.9,0.06,38.85c0.01,1.67-0.91,3.7,1.07,4.95
			c1.81-1.44,0.93-3.42,0.94-5.1c0.09-12.9,0.03-25.8,0.06-38.7c0.01-2.28-0.4-4.69,1.43-6.59c0.32-0.13,0.64-0.15,0.97-0.04
			c1.83,2.11,1.47,4.69,1.48,7.15c0.04,13.48-0.01,26.96,0.05,40.44c0.01,2.59-0.52,5.46,2.36,7.1c2.45,0.27,1.58-1.68,1.63-2.71
			c0.18-3.47-0.09-6.96,0.15-10.43C339.89,393.9,339.26,391.53,342.11,391.05z"/>
		<path class="st2" d="M1007.87,625.45c-19.04,0-38.07,0-57.11,0c11.85-4.61,12.34-14.66,12.33-25.01
			c-0.03-28.81-0.01-57.63-0.02-86.44c0-2.16-0.01-4.33-0.13-6.49c-0.54-9.94-4.66-15.25-15.42-18.5c3.31,0,5.17,0,7.04,0
			c25.49,0.01,50.98-0.17,76.47,0.12c10.98,0.12,21.56,2.46,30,10.29c10.33,9.58,12.46,21.7,9.51,34.8
			c-2.83,12.55-11.53,19.82-23.5,23.51c-1.27,0.39-2.56,0.7-3.82,1.11c-0.27,0.08-0.45,0.41-0.78,0.72
			c4.94,1.7,9.83,3.26,14.31,5.92c10.52,6.25,13.74,16.07,14.01,27.51c0.15,6.14-0.6,12.33,0.77,18.41
			c1.71,7.58,4.22,10.44,11.27,13.38c-10.26,0.24-20.62,1.37-30.57-2.33c-8.41-3.13-11.32-10.14-12.35-18.39
			c-0.93-7.43-0.23-14.98-1.75-22.36c-2.84-13.81-10.21-20.52-24.19-21.51c-5.31-0.37-10.66,0-15.99-0.11
			c-2.39-0.05-3.21,0.91-3.19,3.25c0.11,14.82-0.25,29.66,0.32,44.46C995.39,615.89,999.01,622.57,1007.87,625.45z"/>
		<path class="st2" d="M677.29,559.47c5.21,1.78,10.09,3.34,14.57,6.01c10.31,6.15,13.73,15.74,13.95,27.03
			c0.1,5-0.11,10.01,0.24,14.98c0.56,7.93,3.2,14.62,11.92,17.27c-10.19,0.15-20.4,1.34-30.23-2.15
			c-8.65-3.06-11.74-10.13-12.79-18.6c-0.92-7.43-0.23-14.97-1.75-22.36c-2.86-13.86-10.7-20.8-24.71-21.51
			c-4.99-0.25-10,0.02-14.99-0.08c-2.39-0.05-3.7,0.47-3.67,3.28c0.14,14.82-0.1,29.65,0.28,44.47c0.22,8.68,4.56,13.83,13.95,17.41
			c-20.12,0-39.16,0-59.86,0c13.26-4.3,14.01-14.09,14-24.32c-0.03-29.15-0.01-58.3-0.02-87.44c0-2-0.02-4-0.13-5.99
			c-0.55-9.91-4.63-15.17-15.33-18.48c5.23,0,9.1,0,12.98,0c23.49,0.01,46.99-0.17,70.47,0.12c10.98,0.14,21.56,2.47,29.99,10.31
			c10.31,9.59,12.45,21.7,9.48,34.8c-2.85,12.55-11.55,19.8-23.53,23.49c-1.11,0.34-2.25,0.57-3.36,0.89
			C678.42,558.71,678.16,558.95,677.29,559.47z"/>
		<path class="st2" d="M920.4,541.49c0.34,10.47,0.58,19.78-0.2,30.38c-10.4-15.61-25.46-13.63-39.86-13.76
			c-2.4-0.02-2.62,1.46-2.61,3.3c0.01,18.99,0.04,37.97-0.03,56.96c-0.01,2.6,0.93,3.49,3.51,3.47c10.16-0.1,20.34,0.29,30.48-0.15
			c11.57-0.5,20.45-9.5,23.21-22.62c0.27-1.3,0.49-2.62,0.87-3.88c0.53-1.74,2.06-1.41,3.34-1.32c1.67,0.11,1.59,1.29,1.42,2.55
			c-1.16,8.56-2.41,17.1-3.36,25.69c-0.28,2.57-1.49,2.85-3.57,2.85c-33.82-0.03-67.64-0.02-101.66-0.24
			c11.05-2.75,14.04-10.98,14.08-20.8c0.11-31.98,0.14-63.96-0.11-95.93c-0.07-8.34-2.87-15.67-11.79-19.18c2.45,0,4.9,0,7.35,0
			c30.15,0,60.31,0.07,90.46-0.08c3.69-0.02,5.33,0.92,5.69,4.74c0.75,7.94,1.85,15.84,2.88,23.75c0.19,1.49,0.35,2.66-1.66,2.77
			c-1.64,0.08-2.9-0.12-3.36-2.06c-0.72-3.06-1.4-6.17-2.48-9.11c-4.25-11.62-11.87-16.86-24.24-16.88
			c-8.83-0.01-17.66,0.13-26.49-0.07c-3.36-0.07-4.66,0.75-4.63,4.4c0.17,18.15,0.17,36.31,0,54.46c-0.03,3.63,1.24,4.61,4.62,4.4
			c3.98-0.25,7.99-0.03,11.99-0.09C906.02,554.83,912.38,551.7,920.4,541.49z"/>
		<path class="st2" d="M465.82,624.92c10.54-3.03,15.07-8.84,15.21-19.45c0.24-18.65,0.15-37.31,0.15-55.96
			c0-13.99,0.16-27.99-0.21-41.97c-0.22-8.21-3.11-15.25-11.76-18.74c1.59,0,3.19,0,4.78,0c30.82,0,61.64,0.12,92.46-0.14
			c4.64-0.04,5.99,1.67,6.4,5.71c0.77,7.6,1.75,15.18,2.71,22.76c0.18,1.44,0.47,2.7-1.59,2.82c-1.6,0.09-2.94-0.01-3.4-1.99
			c-0.72-3.06-1.4-6.16-2.48-9.11c-4.25-11.65-11.87-16.92-24.2-16.94c-8.83-0.01-17.67,0.19-26.49-0.09
			c-3.86-0.12-4.73,1.22-4.69,4.85c0.17,17.99,0.17,35.98,0,53.96c-0.03,3.54,1.09,4.78,4.55,4.45c2.48-0.24,5-0.11,7.49-0.03
			c11.93,0.37,22.91-1.53,30.53-13.67c0,10.56,0,19.9,0,30.53c-10.36-15.61-25.41-13.68-39.82-13.79c-1.91-0.02-2.67,0.88-2.67,2.73
			c0.02,19.32,0.03,38.64-0.02,57.96c-0.01,2.53,1.26,3.03,3.43,3.01c10.16-0.06,20.34,0.29,30.48-0.13
			c11.57-0.48,20.48-9.46,23.27-22.56c0.24-1.14,0.45-2.28,0.68-3.42c0.41-2.02,1.94-2.02,3.48-1.86c2.08,0.21,1.56,1.64,1.38,2.98
			c-1.11,8.23-2.36,16.45-3.18,24.7c-0.29,2.97-1.5,3.45-4.07,3.42c-9.83-0.11-19.66-0.04-29.49-0.04
			C514.95,624.92,491.12,624.92,465.82,624.92z"/>
		<path class="st2" d="M826.92,491.53c0,10.61,0.01,20.87-0.01,31.13c0,1.48,0.21,3.03-2.08,3.2c-2.16,0.16-3-0.83-3.28-2.77
			c-0.67-4.62-1.99-9.04-3.78-13.38c-7.74-18.69-39.39-26.15-53.91-5.77c-7.63,10.71-12.32,22.38-14.42,35.17
			c-2.56,15.54-2.1,30.98,4.7,45.44c8.22,17.49,21.94,27.71,41.72,28.43c13.61,0.49,23.23-6.75,31.08-16.99
			c0.71-0.92,1.31-1.92,1.97-2.88c0.44-0.64,0.82-1.74,1.72-1.3c0.87,0.42,1.51,1.51,0.99,2.54c-1.03,2.08-2.12,4.16-3.4,6.09
			c-13.85,20.71-35.67,28.65-61.18,22.34c-32.56-8.06-54.99-42.42-49.34-75.57c5.36-31.43,24.7-51.99,55.38-57.61
			c13.44-2.46,26.86-0.79,39.63,4.59C820.18,497.32,821.19,497.13,826.92,491.53z"/>
		<path class="st2" d="M459.03,624.83c-19.99,0-39.97,0-59.96,0c4.49-1.08,8.14-3.36,10.6-7.27c2.35-3.75,3.43-7.93,3.44-12.34
			c0.01-32.48,0.13-64.96-0.11-97.43c-0.06-8.2-2.86-15.38-13.02-18.66c19.56,0,37.83,0,57.07,0c-9.65,3.85-12.13,11.25-12.15,19.86
			c-0.07,31.81-0.04,63.62-0.02,95.44c0,2.66,0.29,5.27,1.05,7.88C447.88,618.96,451.78,623.35,459.03,624.83z"/>
		<path class="st2" d="M495.01,307.86c8.8,0,17.61,0.09,26.41-0.05c3.3-0.05,3.64,2.46,4.46,4.49c6.79,16.8,13.49,33.63,20.24,50.44
			c0.68,1.69,1.49,3.32,2.4,5.35c2.7-3.63,3.79-7.65,5.42-11.38c6.43-14.79,12.82-29.59,19-44.49c1.35-3.25,3.01-4.59,6.63-4.46
			c7.81,0.28,15.64,0.09,24.64,0.09c-7.45,4.74-8.11,11.31-8.07,18.29c0.09,19.31-0.01,38.63,0.06,57.95
			c0.03,8.8,2.77,13.11,10,15.74c-13.68,0-26.8,0-41.06,0c7.43-2.21,9.79-7.15,9.82-13.15c0.15-23.81,0.06-47.61-0.68-71.7
			c-12.1,28.24-24.21,56.48-36.69,85.61c-11.14-28.63-21.9-56.27-32.69-83.98c-1.48,0.66-1.11,1.59-1.11,2.28
			c-0.03,22.31-0.01,44.63-0.03,66.94c0,6.21,1.6,11.44,9.27,14.09c-7.41,0-13.58,0-20.71,0c6.51-2.24,8.81-6.6,8.84-12.11
			c0.11-22.64,0.09-45.29,0.05-67.93C501.2,315.04,499.03,311.27,495.01,307.86z"/>
		<path class="st2" d="M609.97,307.17c23.51,0,45.67,0.06,67.83-0.07c3.08-0.02,4.54,0.8,4.8,3.99c0.42,5.13,1.13,10.24,1.77,15.35
			c0.14,1.12,0.11,2.08-1.21,2.24c-1.14,0.13-1.66-0.63-2.11-1.67c-7.5-17.69-7.51-17.69-26.67-17.69c-12.53,0-12.53,0-12.53,12.37
			c0,8.83,0.13,17.66-0.06,26.48c-0.07,3.32,1.08,4.5,4.31,4.21c2.31-0.21,4.66-0.1,6.99-0.05c7.13,0.16,13.06-2.15,17.52-8.98
			c0,7.03,0,13.34,0,20.36c-6.6-10.02-16.53-8.85-26.13-8.82c-2.35,0.01-2.65,1.38-2.64,3.25c0.03,12.16,0.07,24.32-0.03,36.48
			c-0.02,2.72,1.12,3.4,3.59,3.35c6.33-0.12,12.67,0.18,18.99-0.1c7.94-0.36,12.74-5.04,15.3-12.27c0.61-1.72,0.95-3.52,1.42-5.29
			c0.33-1.25,1.27-1.42,2.33-1.22c1.07,0.2,1.11,1,1,1.9c-0.71,5.44-1.43,10.87-2.06,16.31c-0.23,2-1.1,2.79-3.21,2.79
			c-22.63-0.06-45.25-0.04-68.02-0.24c6.86-1.92,8.92-7.09,8.95-13.28c0.1-21.98,0.11-43.97-0.01-65.95
			C620.07,313.52,617.39,309.9,609.97,307.17z"/>
		<path class="st2" d="M702.83,339.55c0,16.6-0.09,32.74,0.05,48.88c0.05,5.38,2.58,9.43,9.27,11.53c-7.5,0-13.61,0-20.71,0
			c7.29-2.71,8.79-8.03,8.78-14.22c-0.04-18.15,0.01-36.3-0.09-54.45c-0.05-8.39-1.09-16.55-7.86-22.98
			c6.31-1.25,10.93-0.26,15.48,4.48c17.41,18.14,35.32,35.8,53.07,53.61c1.01,1.01,1.74,2.45,3.72,2.77
			c0-16.32,0.11-32.54-0.07-48.76c-0.05-4.97-2.1-9.29-7.92-12.33c6.47,0,11.49,0,17.78,0c-6.86,3.88-7.59,9.45-7.57,15.48
			c0.08,23.98,0.04,47.96,0,71.93c0,1.41,0.78,3.29-0.77,4.14c-1.98,1.09-2.94-0.99-4.02-2.07c-18.17-18.09-36.3-36.24-54.47-54.34
			C706.25,341.99,705.27,340.36,702.83,339.55z"/>
		<path class="st2" d="M854.73,369.23c0-15.51,0.06-30.66-0.03-45.81c-0.04-5.95-1.14-11.58-8.1-15.32c6.4,0,11.42,0,17.7,0
			c-6.82,3.89-7.57,9.44-7.55,15.47c0.08,23.81,0.06,47.62-0.02,71.43c-0.01,1.63,1.18,4.01-1.18,4.81
			c-1.86,0.62-2.81-1.46-3.93-2.57c-18.05-17.98-36.06-36.01-54.11-53.99c-1.25-1.25-2.24-2.87-4.79-3.73c0,2.84,0,5.4,0,7.96
			c0,12.99-0.01,25.98,0.02,38.96c0.01,6.03,1.72,11.09,9.35,13.52c-7.44,0-13.54,0-20.6,0c7.24-2.71,8.75-8.02,8.73-14.2
			c-0.04-18.15,0.01-36.3-0.09-54.45c-0.05-8.39-1.08-16.55-7.86-22.99c6.3-1.25,10.93-0.27,15.48,4.47
			c17.41,18.14,35.32,35.8,53.07,53.61C851.81,367.41,852.54,368.85,854.73,369.23z"/>
		<path class="st2" d="M947.39,308.12c6.1,0,11.79,0,17.48,0c-8.72,3.03-14.31,9.47-19.35,16.6c-1.92,2.71-3.71,5.63-6.08,7.9
			c-8.16,7.85-10.76,17.23-9.64,28.37c0.78,7.75,0.12,15.64,0.16,23.46c0.03,6.15,1.03,11.91,8.23,15.55c-12.95,0-24.64,0-37.5,0
			c7.22-4.17,8.19-10.25,8.14-16.76c-0.01-0.83-0.09-1.68,0.01-2.5c2.22-17.27-1.68-32.8-12.79-46.46
			c-2.71-3.33-4.65-7.28-6.9-10.98c-5.6-9.17-6.6-10.17-15.68-15.19c13.17,0,25.86,0,38.92,0c-3.72,3.55-3.16,7.26-0.89,10.93
			c4.72,7.64,9.58,15.2,14.28,22.86c1.31,2.13,2.19,2.54,3.86,0.28c5.43-7.36,11.13-14.53,16.49-21.95
			C948.7,316.68,950.54,312.71,947.39,308.12z"/>
		<path class="st3" d="M330.11,578.91c2.88,0.09,3.45-2.52,4.64-4.24c1.87,0.74,0.76,2.97,2.61,4.01c0.99-3.85,1.2-7.39-0.45-10.94
			c-1.67,0.53-1.31,2.32-3,3.61c0-49.13,0-97.72,0-146.31c3.57,3.89,1.26,8.6,3.16,12.79c0-2.81-0.04-5.61,0.02-8.42
			c0.03-1.25-0.39-3,1.55-3.1c1.92-0.1,2.43,1.43,2.46,3.07c0.04,1.66,0.03,3.33,0.03,4.99c0,13.81-0.02,27.62,0.03,41.42
			c0.01,1.75-0.65,3.7,0.92,5.2c0.35,26.27,0.02,52.56,1.28,78.78c0.96,20.01-0.43,39.85-1.19,59.75c-0.11,2.8-0.77,5.59-1.17,8.38
			c-0.9,0.77,0.15,2.84-1.27,2.82c-1.93-0.03-1.96-2.05-1.93-3.41c0.26-9.43-0.95-18.78-1.19-28.19c-0.04-1.68,0.82-3.74-1.36-4.86
			c-0.4-0.28-0.7-0.64-0.9-1.07c-0.53-1.53,0.02-2.91,0.54-4.33c0.57-1.57,1.35-3.46-0.94-4.14c-1.93-0.57-2.42,1.22-2.85,2.68
			c-0.14,0.48-0.26,0.96-0.4,1.44c-1.08,3.12-1.13,6.35-1.31,9.6c-0.1,1.74,0.41,4.07-2.38,4.49c0.01-17,0.03-33.99,0.04-50.99
			c0.32-0.01,0.63-0.04,0.95-0.09c1.5,1.28,1.02,3.04,1.03,4.63c0.06,5.94-0.02,11.88,0.05,17.81
			C329.13,575.87,328.52,577.65,330.11,578.91z"/>
		<path class="st4" d="M430.92,483.45c3.1-11.97,5.86-22.34,8.45-32.76c0.78-3.15,2.03-4.82,5.71-4.56
			c5.08,0.36,10.21,0.09,16.62,0.09C451.25,458.85,441.53,470.6,430.92,483.45z"/>
		<path class="st4" d="M425.42,481.74c-9.48-11.44-18.95-22.87-29.35-35.42c7.36,0,13.54-0.02,19.71,0.03
			c0.91,0.01,1.45,0.83,1.67,1.64c2.97,11.11,5.9,22.23,8.84,33.34C426,481.47,425.71,481.6,425.42,481.74z"/>
		<path class="st4" d="M428.49,481.25c-2.79-10.5-5.53-21.02-8.41-31.49c-0.72-2.62-0.14-3.66,2.67-3.57
			c4.14,0.13,8.3,0.1,12.44,0.01c2.56-0.05,3.14,0.97,2.49,3.36c-2.85,10.5-5.6,21.02-8.39,31.54
			C429.03,481.15,428.76,481.2,428.49,481.25z"/>
		<path class="st5" d="M338.1,411c-3.6-1.17-4.18-3.71-4.13-7.27c0.22-16.54,0.11-33.08,0.13-49.62c1.66,0,3.33-0.01,4.99-0.01
			c1.36,1.46,1.59,3.28,1.4,5.12c-1.59,15.38-0.48,30.8-0.92,46.2C339.51,407.39,339.75,409.45,338.1,411z"/>
		<path class="st6" d="M338.1,411c0.23-18.97-0.72-37.96,0.99-56.9c2.29-0.44,3.23,0.25,3.19,2.82
			c-0.17,11.37-0.13,22.75-0.17,34.13c-2.14,5.68-0.39,11.58-0.94,17.35C340.98,410.34,341.47,412.89,338.1,411z"/>
		<path class="st7" d="M338.09,638.93c-0.29,1.82-0.99,3.41-2.88,4.98c-3.71-6.78-6.34-13.56-7.1-21c0.7-6.25,1.51-12.48,1.61-18.78
			c0.05-3.06,0.43-6.25,4.88-5.77c2.21,1.44,1.72,3.77,1.81,5.85c0.37,7.96-0.64,15.9-0.28,23.86c0.1,2.15,0.53,4.7-0.35,6.38
			C334.12,637.64,340.07,636.14,338.09,638.93z"/>
		<path class="st8" d="M338.09,638.93c-5.8-1.17-3.53-5.93-3.58-9.09c-0.15-10.31,0.3-20.63,0.52-30.95
			c-1.2-1.64-1.42-3.26,0.14-4.82c0.54-0.78,1.23-2.28,1.6-2.21c1.73,0.36,1.32,2.01,1.29,3.22c-0.26,11.57,1.89,23.07,0.8,34.69
			c1.61,0.06,1.11-1.67,2.15-1.86C340.83,631.79,340.16,635.55,338.09,638.93z"/>
		<path class="st9" d="M331.02,407.02c-3.39-0.38-3-2.93-3-5.24c0.03-15.89,0.06-31.77,0.09-47.66c0.96,0.02,1.91,0.04,2.87,0.06
			c1.2,1.19,1.08,2.73,1.09,4.21c0.02,14.8,0.02,29.6,0,44.39C332.06,404.27,332.19,405.81,331.02,407.02z"/>
		<path class="st10" d="M335.18,594.06c-0.05,1.61-0.09,3.21-0.14,4.82c-3.06-0.12-4.21,1.52-3.92,4.36
			c0.57,5.66-1.06,11.18-1.03,16.81c0.01,1.44-0.2,2.68-1.98,2.87c-2.09-6.56-1.06-13.3-1.07-19.97c1.98-2.12,0.86-4.72,0.99-7.09
			c0.16-2.81,0.14-5.59,2.04-7.91c2.83,0.47,3.16,3.45,4.97,4.94C335.09,593.27,335.13,593.67,335.18,594.06z"/>
		<path class="st11" d="M439.79,443.48c-3.09-4.53-5.77-8.44-8.81-12.89c5.86,0,11.16,0,17.26,0
			C445.35,435,442.72,439.01,439.79,443.48z"/>
		<path class="st4" d="M415.55,443.85c-6.48,0-12.05,0-18.32,0c2.35-4.41,5.98-7.5,8.87-11.11c1.41-1.77,2.25,0.18,2.92,1.15
			C411.06,436.88,413.01,439.95,415.55,443.85z"/>
		<path class="st12" d="M461.18,443.89c-6.66,0-12.41,0-18.5,0c1.38-4,4.35-6.94,6.31-10.46c1.29-2.33,2.35-0.88,3.35,0.26
			C455.08,436.81,457.78,439.97,461.18,443.89z"/>
		<path class="st13" d="M418.07,443.38c-0.82-1.1-1.28-1.58-1.57-2.14c-1.86-3.58-7.31-7.87-5.46-10.11
			c2.32-2.81,8.35-0.69,12.78-0.9c2.45-0.12,2.36,1.13,1.27,2.75C422.87,436.25,420.66,439.53,418.07,443.38z"/>
		<path class="st4" d="M420.34,443.84c2.56-3.77,4.85-7.15,7.14-10.52c1.08-1.58,1.93-1.37,2.92,0.19c2.11,3.3,4.33,6.53,6.88,10.33
			C431.32,443.84,426.15,443.84,420.34,443.84z"/>
		<path class="st14" d="M331.02,407.02c-0.01-17.61-0.03-35.23-0.04-52.84c0.72-0.01,1.43-0.01,2.15-0.02
			c-0.02,16.46,0.01,32.92-0.15,49.38C332.96,404.64,335,407.8,331.02,407.02z"/>
		<path class="st15" d="M423.04,298.96c8.15,3.39,12.75,10.52,17.35,17.3c7.61,11.21,11.61,23.98,11.45,37.48
			c-0.2,16.75-6.04,31.86-16.87,44.69c-11,13.03-24.99,21.52-42.44,25.74c2.34-2.81,5.18-2.93,7.51-3.99
			c2.41-1.1,4.92-2.03,7.26-3.27c1.37-0.73,3.44-0.59,3.86-2.71c6.06-4.83,12.52-9.11,17.79-14.94
			c9.54-10.57,16.01-22.5,18.21-36.73c3.27-21.12-3.82-38.66-17.92-53.94c-2.02-2.19-4.42-4.04-5.96-6.67
			C422.84,300.97,422.45,300,423.04,298.96z"/>
		<path class="st16" d="M424,301.23c8.22,8.04,15.77,16.55,20.16,27.43c10.4,25.79,4.4,48.71-12.55,69.43
			c-5.54,6.77-12.28,12.46-20.45,16.11c-2.83-0.77-0.5-1.44,0.12-1.83c6.36-4.03,12.22-8.69,17.22-14.32
			c18.27-20.6,24.22-43.81,12.93-69.57c-7.23-16.5-20.35-28.12-36.31-36.43c-0.24-0.91-0.05-1.38,1-1.01
			c0.67,0.31,1.34,0.62,2.01,0.92c6.02-0.33,9.44,4.38,13.79,7.23C422.67,299.69,423.31,300.54,424,301.23z"/>
		<path class="st17" d="M330.11,578.91c-2.12,2.96-2.01,0.83-2.01-0.89c-0.03-8.72-0.05-17.44-0.07-26.15c0-43.06,0-86.13,0-129.96
			c2.82,1.79,2.07,3.76,2.08,5.34c0.07,13.99,0.04,27.98,0.05,41.97c0.01,16.14-0.64,32.31,0.18,48.4
			C331.38,538.08,329.31,558.48,330.11,578.91z"/>
		<path class="st18" d="M320.04,299.02c-2.21,0.23-3.15,2.28-4.78,3.32c-1.49,0.94-2.75,4.28-4.57,2.1
			c-1.46-1.74,1.64-3.21,2.98-4.25c7.99-6.19,16.36-11.78,26.27-14.58c2.67-0.75,5.32-1.62,8.15-2.49
			c-0.68,2.38-3.23,1.28-4.16,2.79c-0.86,2.01-2.68,2.62-4.57,3.12c-3.06,0.31-5.49,2.02-7.94,3.67
			C327.51,294.62,324.42,297.99,320.04,299.02z"/>
		<path class="st19" d="M320.04,299.02c3.31-2.84,6.97-5.15,10.83-7.15c2.81-1.07,5.32-2.84,8.24-3.65c1.6-0.76,3.2-1.53,4.8-2.29
			c2.5,0.99,4.76-1.35,8.89-0.07c-15.04,4.39-27.74,10.43-38.69,21.53C315.07,302.94,318.91,301.94,320.04,299.02z"/>
		<path class="st20" d="M337.05,421.1c-8.72-3.33-16.8-7.79-24.04-13.68c-0.92-0.75-2.61-1.35-1.58-3.09
			c0.67-1.12,1.72-0.63,2.65-0.28c3.09,0.37,4.86,2.29,5.96,5.01c5.37,5.32,12.26,8.03,19,11
			C339.19,421.97,338.12,421.53,337.05,421.1z"/>
		<path class="st21" d="M308.92,315.32c-1.09,2-0.77,5.1-3.45,4.53c-2.48-0.53-2.88-3.61-2.84-5.68c0.03-1.54,0.89-4.32,3.49-3.77
			C308.78,310.96,307.98,313.83,308.92,315.32z"/>
		<path class="st22" d="M309.13,392.98c0.14,3.09-0.7,5.77-2.61,5.43c-2.34-0.42-2.9-3.64-3.2-5.86c-0.21-1.55,0.66-4.14,2.74-3.97
			C308.96,388.82,308.7,391.79,309.13,392.98z"/>
		<path class="st23" d="M424,301.23c-5.45-2.83-9.83-7.48-15.88-9.27c0.1-1.7,0.93-1.78,2.34-1.24c4.81,1.84,9,4.57,12.58,8.25
			C423.36,299.72,423.68,300.47,424,301.23z"/>
		<path class="st24" d="M406.11,291.04c-0.33,0.34-0.67,0.68-1,1.01c-6.02-2.08-12.04-4.16-18.07-6.24
			C394.01,285.4,400.18,287.77,406.11,291.04z"/>
		<path class="st25" d="M337.05,421.1c0.78-0.12,1.6-0.16,1.98-1.04c5.59,1.21,10.66,4,16.31,5.09
			C348.97,424.88,342.72,424.26,337.05,421.1z"/>
		<path class="st26" d="M320.04,409.06c-1.99-1.67-3.97-3.34-5.96-5.01c0.31-1.99,1.21-2.16,2.64-0.89
			c2.22,1.98,4.45,3.93,6.93,6.11C322.23,410.29,321.14,408.65,320.04,409.06z"/>
		<path class="st0" d="M994.78,524.54c0-9.49,0.09-18.99-0.05-28.48c-0.05-2.97,0.79-4.18,3.93-4.06c5.16,0.2,10.33,0,15.49,0
			c12.91,0.01,20.81,5.64,24.24,18.02c2.76,9.95,2.78,20.09-0.39,30.01c-3.78,11.81-11.05,16.99-23.36,17
			c-5.33,0.01-10.67-0.19-15.99,0.02c-3.14,0.12-3.97-1.06-3.92-4.04C994.87,543.53,994.78,534.03,994.78,524.54z"/>
		<path class="st0" d="M629.86,524.6c0-9.16,0.15-18.33-0.07-27.48c-0.09-3.74,0.73-5.46,4.89-5.15c4.8,0.35,9.66,0.04,14.49,0.04
			c12.96,0,20.93,5.55,24.25,17.97c3.11,11.65,3.17,23.42-2.23,34.59c-3.97,8.22-10.6,12.56-19.91,12.47
			c-5.83-0.06-11.67-0.18-17.49,0.01c-3.06,0.1-4.04-0.91-3.99-3.98C629.97,543.59,629.86,534.09,629.86,524.6z"/>
		<path class="st27" d="M335.04,592.88c-3.27-0.02-3.06-3.55-4.97-4.94c0.27-1.85-0.5-4.24,2.27-4.84c1.47-0.32,3.11-0.41,4.08,1.03
			c1.26,1.87,0.81,3.67-0.44,5.51C335.37,590.51,335.33,591.78,335.04,592.88z"/>
		<path class="st1" d="M339.12,288.21c-2.55,1.67-5.09,3.35-8.24,3.65C333.3,289.91,335.81,288.16,339.12,288.21z"/>
	</g>
</g>
</svg>
