<?xml version="1.0" standalone="no"?>
<!DOCTYPE svg PUBLIC "-//W3C//DTD SVG 20010904//EN"
 "http://www.w3.org/TR/2001/REC-SVG-20010904/DTD/svg10.dtd">
<svg version="1.0" xmlns="http://www.w3.org/2000/svg"
 width="1376.000000pt" height="1000.000000pt" viewBox="0 0 1376.000000 1000.000000"
 preserveAspectRatio="xMidYMid meet">

<g transform="translate(0.000000,1000.000000) scale(0.100000,-0.100000)"
fill="#000000" stroke="none">
<path d="M2530 7470 c-19 -4 -66 -13 -105 -20 -200 -34 -423 -139 -574 -272
-34 -30 -52 -38 -82 -38 -73 0 -135 -20 -179 -57 -95 -82 -95 -204 0 -285 100
-86 249 -70 334 35 29 36 31 45 31 117 l0 79 40 34 c201 169 467 249 757 226
351 -28 676 -250 797 -548 49 -120 56 -157 56 -311 -1 -149 -6 -177 -54 -298
-54 -136 -190 -297 -330 -391 -173 -117 -411 -180 -630 -168 -100 6 -282 44
-301 63 -5 5 -10 187 -12 404 l-3 395 -102 3 -101 3 -4 -335 c-1 -184 -6 -338
-10 -342 -4 -4 -28 10 -53 31 -38 31 -44 41 -38 58 4 12 8 43 7 69 -4 179
-282 248 -403 101 -63 -77 -58 -167 15 -239 48 -49 133 -80 188 -70 29 6 41 0
99 -48 37 -30 93 -71 126 -90 l60 -37 4 -412 c2 -227 3 -801 1 -1277 -2 -499
1 -907 6 -965 11 -107 55 -267 90 -324 18 -29 23 -32 35 -20 74 76 119 598 97
1132 -10 238 -14 713 -12 1596 l0 174 33 -6 c17 -4 68 -13 112 -22 197 -39
228 -40 380 -11 312 60 509 156 685 335 138 139 220 279 271 461 33 119 34
356 1 472 -112 405 -460 700 -927 785 -103 19 -254 25 -305 13z"/>
<path d="M5935 7047 c26 -14 48 -37 63 -67 l22 -45 -2 -506 -3 -505 -28 -43
c-19 -29 -37 -44 -58 -48 -88 -17 33 -23 456 -21 l470 3 12 100 c6 55 14 119
17 143 5 39 4 42 -18 42 -20 0 -24 -6 -30 -41 -13 -79 -66 -158 -129 -191 -39
-21 -56 -23 -217 -23 l-175 0 0 290 0 290 115 -3 c102 -2 121 -5 170 -30 33
-16 64 -41 78 -61 l22 -34 0 144 0 144 -25 -37 c-14 -21 -46 -46 -77 -62 -47
-24 -63 -26 -170 -26 l-118 0 2 288 3 287 175 0 c161 0 178 -2 217 -23 63 -33
116 -112 129 -191 5 -34 10 -41 30 -41 26 0 26 -16 0 195 l-11 90 -480 2 -480
3 40 -23z"/>
<path d="M4357 7023 c27 -25 45 -53 52 -80 8 -29 11 -189 9 -525 -3 -460 -4
-485 -23 -523 -12 -24 -33 -46 -52 -55 -18 -8 -33 -18 -33 -22 0 -5 56 -8 125
-8 69 0 125 3 125 8 0 4 -15 14 -32 22 -18 8 -42 31 -53 50 -19 34 -20 54 -23
555 -2 308 1 516 6 510 5 -6 14 -23 20 -40 12 -36 61 -162 212 -550 62 -159
133 -341 156 -403 24 -62 48 -121 53 -130 11 -19 16 -9 151 308 220 516 352
825 356 830 3 2 3 -232 2 -520 -3 -504 -4 -526 -23 -559 -11 -19 -37 -42 -60
-52 -22 -10 -35 -19 -30 -19 81 -4 528 0 533 4 3 3 -4 6 -16 6 -35 0 -88 55
-101 104 -17 70 -14 969 3 1019 17 45 41 75 76 91 20 9 -16 12 -174 14 -110 1
-203 -1 -206 -5 -4 -5 -82 -186 -175 -403 -92 -217 -171 -398 -175 -403 -3 -4
-71 154 -150 350 -78 197 -153 382 -166 411 l-23 52 -202 0 -202 0 40 -37z"/>
<path d="M7007 7032 c83 -77 93 -146 93 -664 0 -420 0 -424 -22 -468 -15 -29
-35 -50 -55 -60 -18 -8 -33 -18 -33 -22 0 -5 56 -8 125 -8 69 0 125 3 125 8 0
4 -15 14 -33 22 -19 9 -40 31 -52 55 -19 37 -20 63 -23 395 l-3 355 418 -417
c230 -230 424 -418 430 -418 9 0 13 140 15 563 3 532 4 564 22 601 11 21 36
48 55 60 l36 21 -63 3 c-34 2 -90 2 -125 0 l-62 -3 32 -18 c18 -9 43 -36 55
-60 22 -41 23 -51 26 -394 2 -200 0 -353 -5 -353 -5 0 -195 187 -422 415
l-413 415 -75 0 -75 0 29 -28z"/>
<path d="M8228 7022 c31 -31 43 -55 60 -119 21 -76 22 -100 22 -524 0 -441 0
-444 -23 -484 -12 -23 -36 -46 -54 -55 -18 -8 -33 -18 -33 -22 0 -12 248 -10
255 2 3 6 -3 10 -13 10 -34 0 -80 58 -92 114 -6 31 -9 176 -8 376 l3 325 421
-419 c247 -245 426 -416 433 -412 8 5 11 167 11 563 0 545 0 558 21 600 12 25
34 51 53 61 l31 17 -63 3 c-34 2 -90 2 -125 0 l-62 -3 36 -21 c71 -42 74 -55
77 -451 2 -222 -1 -353 -7 -353 -5 0 -193 187 -417 415 l-408 415 -78 0 -78 0
38 -38z"/>
<path d="M9425 7051 c3 -5 19 -12 36 -16 64 -14 131 -98 295 -365 l156 -254
-4 -241 -3 -240 -28 -47 c-15 -27 -31 -48 -36 -48 -4 0 -16 -7 -27 -15 -17
-13 9 -14 234 -15 161 0 252 4 252 10 0 6 -6 10 -14 10 -8 0 -27 15 -44 34
-43 50 -52 120 -52 424 l0 261 52 68 c260 342 293 379 376 409 26 10 51 21 57
26 5 4 -51 8 -125 8 -128 0 -133 -1 -117 -18 22 -24 21 -78 -1 -119 -27 -49
-256 -352 -267 -352 -5 -1 -34 39 -64 87 -201 324 -204 331 -155 377 l27 25
-277 0 c-167 0 -275 -4 -271 -9z"/>
<path d="M3190 5399 c0 -17 94 -159 105 -159 13 0 116 156 108 164 -12 11
-213 7 -213 -5z"/>
<path d="M3478 5404 c-7 -6 100 -164 111 -164 8 0 111 152 111 164 0 8 -215 8
-222 0z"/>
<path d="M3080 5312 c-36 -42 -66 -80 -68 -84 -2 -4 53 -8 123 -8 70 0 125 4
123 9 -7 17 -103 161 -108 161 -3 -1 -34 -35 -70 -78z"/>
<path d="M3385 5313 c-27 -41 -51 -79 -53 -84 -2 -5 46 -9 107 -9 61 0 111 3
111 7 0 10 -103 163 -109 163 -4 -1 -28 -35 -56 -77z"/>
<path d="M3676 5309 c-31 -44 -56 -82 -56 -85 0 -2 56 -4 125 -4 69 0 125 2
125 5 0 6 -131 165 -136 165 -1 0 -28 -36 -58 -81z"/>
<path d="M3012 5181 c2 -5 75 -96 163 -203 89 -106 176 -212 195 -235 18 -24
35 -41 37 -40 3 4 -116 467 -123 479 -7 11 -276 10 -272 -1z"/>
<path d="M3320 5176 c0 -8 22 -97 49 -198 27 -101 52 -200 56 -220 4 -21 10
-38 14 -38 4 0 33 98 65 218 31 119 59 225 62 235 5 16 -5 17 -120 17 -103 0
-126 -3 -126 -14z"/>
<path d="M3600 5188 c0 -2 -29 -111 -64 -243 -35 -132 -63 -241 -62 -242 4 -4
390 463 394 476 3 8 -37 11 -132 11 -75 0 -136 -1 -136 -2z"/>
<path d="M3062 4615 c3 -3 25 -16 49 -28 24 -12 54 -37 67 -56 52 -79 52 -81
52 -833 0 -672 -1 -701 -20 -755 -29 -84 -93 -143 -155 -143 -14 0 -25 -4 -25
-10 0 -7 145 -10 415 -10 228 0 415 4 415 9 0 4 -18 11 -40 14 -85 11 -143 91
-160 220 -12 94 -12 1270 0 1364 5 40 18 90 29 111 24 46 84 102 111 102 10 0
22 5 25 10 4 7 -125 10 -381 10 -213 0 -385 -2 -382 -5z"/>
<path d="M4016 4594 c64 -30 99 -80 120 -170 13 -56 14 -165 12 -752 -3 -628
-5 -691 -21 -731 -34 -86 -93 -141 -152 -141 -14 0 -25 -4 -25 -10 0 -7 243
-10 710 -10 391 0 710 3 710 8 0 4 11 93 25 197 14 105 25 196 25 203 0 9 -10
12 -31 10 -30 -3 -32 -6 -50 -75 -9 -39 -26 -88 -37 -110 -31 -60 -95 -126
-148 -153 -48 -25 -54 -25 -316 -28 l-268 -3 0 425 0 426 133 0 c243 0 321
-29 426 -160 l20 -25 0 210 c0 201 -1 209 -17 185 -41 -59 -78 -92 -140 -122
-66 -33 -67 -33 -244 -36 l-178 -4 2 424 3 423 239 3 c203 2 248 0 290 -14
126 -42 195 -126 235 -287 18 -69 20 -72 50 -75 20 -2 31 1 31 10 0 15 -37
316 -46 371 l-6 37 -701 0 -702 -1 51 -25z"/>
<path d="M5525 4610 c-4 -6 5 -10 21 -10 47 0 107 -44 140 -102 l29 -53 0
-750 c0 -749 0 -750 -22 -790 -30 -56 -73 -94 -124 -110 -39 -12 5 -14 366
-14 l410 0 -53 20 c-38 15 -61 32 -83 62 -56 77 -60 110 -57 468 l3 324 160
-1 c179 -1 235 -15 308 -75 85 -70 114 -158 127 -386 7 -118 15 -178 30 -219
22 -64 73 -124 127 -149 61 -29 179 -45 331 -44 142 1 145 1 98 14 -128 35
-165 122 -166 385 -1 185 -30 272 -117 351 -57 52 -122 88 -206 114 l-72 23
60 17 c89 26 189 81 236 132 138 150 154 414 34 589 -82 119 -211 182 -415
204 -128 13 -1157 13 -1165 0z m1004 -51 c97 -22 171 -103 210 -233 26 -86 29
-267 5 -359 -31 -122 -94 -206 -184 -246 -40 -18 -66 -21 -227 -21 l-183 0 0
435 0 434 133 3 c146 3 182 1 246 -13z"/>
<path d="M8035 4600 c-340 -77 -610 -343 -685 -676 -81 -359 42 -721 322 -946
220 -178 531 -239 787 -155 127 42 280 164 362 290 46 70 53 91 41 113 -7 13
-17 4 -55 -49 -91 -127 -216 -208 -356 -230 -161 -25 -359 51 -495 188 -120
122 -181 270 -206 502 -42 386 150 830 398 923 63 24 135 25 233 5 200 -42
313 -173 354 -408 6 -36 8 -38 38 -35 l32 3 3 233 c1 152 -1 232 -8 232 -5 0
-10 -5 -10 -10 0 -6 -11 -22 -25 -35 -33 -34 -73 -32 -165 6 -163 67 -397 87
-565 49z"/>
<path d="M8920 4603 c80 -34 125 -104 140 -216 13 -96 12 -1283 0 -1370 -18
-122 -75 -201 -155 -214 -111 -18 36 -23 675 -23 602 0 710 2 710 14 0 8 11
101 25 207 14 107 25 195 25 197 0 1 -15 2 -34 2 -33 0 -34 -1 -45 -59 -15
-79 -73 -192 -117 -230 -19 -17 -54 -41 -77 -53 -40 -22 -54 -23 -309 -26
l-268 -3 0 427 0 426 168 -4 c143 -4 175 -8 226 -28 62 -24 125 -74 153 -121
10 -16 21 -29 25 -29 4 0 8 93 7 208 l0 207 -22 -30 c-40 -55 -91 -98 -147
-124 -50 -23 -70 -26 -228 -31 -96 -3 -176 -3 -178 -1 -2 2 -4 195 -4 428 l0
423 237 0 c289 0 327 -8 409 -83 62 -56 105 -138 125 -234 13 -62 14 -63 46
-63 18 0 33 2 33 4 0 1 -11 93 -25 202 -14 109 -25 202 -25 206 0 5 -316 8
-702 7 -635 -1 -700 -2 -668 -16z"/>
<path d="M10440 4611 c0 -6 11 -11 25 -11 63 0 135 -69 160 -152 13 -44 15
-150 15 -755 0 -677 -1 -706 -20 -760 -25 -71 -70 -119 -129 -137 -41 -12 -3
-14 364 -14 401 0 409 0 361 17 -61 21 -108 73 -130 144 -14 45 -16 98 -14
382 l3 330 150 0 c174 -1 236 -15 308 -70 89 -68 137 -213 137 -415 0 -159 41
-272 116 -322 71 -47 140 -60 339 -64 175 -3 178 -3 125 12 -64 17 -118 68
-139 131 -7 21 -16 122 -21 228 -6 157 -12 200 -29 246 -41 109 -142 192 -291
243 -41 13 -68 27 -60 30 8 3 35 10 60 17 105 27 207 97 260 179 89 139 96
358 15 502 -37 67 -125 145 -202 180 -133 60 -141 61 -800 65 -426 3 -603 1
-603 -6z m1057 -70 c119 -61 183 -202 183 -406 0 -196 -61 -333 -180 -403 -44
-26 -50 -27 -237 -30 l-193 -4 0 436 0 435 133 3 c162 4 244 -5 294 -31z"/>
</g>
</svg>
